# xmcd
# Copyright (C) 1995-1998 Ti Kan
#
# Track frame offsets:
#       150
#       25330
#       46155
#       65852
#       91155
#       125485
#       145825
#       174247
#       196540
#       222802
#       251215
#
# Disc length: 3646 seconds
#
# Revision: 0
# Processed by: cddbd v1.5.2PL0 Copyright (c) Steve Scherf et al.
# Submitted via: CD-Transfer v1.0
#
DISCID=970e3c0b
DTITLE=Air - 10000 Hz Legend
DYEAR=01
DGENRE=
TTITLE0=Electronic Performers
TTITLE1=How Does It Make You Feel?
TTITLE2=Radio #1
TTITLE3=The Vagabond
TTITLE4=Radian
TTITLE5=Lucky And Unhappy
TTITLE6=Sex Born Poison
TTITLE7=People In The City
TTITLE8=Wonder Milky Bitch
TTITLE9=Don T Be Light
TTITLE10=Caramel Prisoner
EXTD=
EXTT0=
EXTT1=
EXTT2=
EXTT3=
EXTT4=
EXTT5=
EXTT6=
EXTT7=
EXTT8=
EXTT9=
EXTT10=
PLAYORDER=
